# xmcd CD database file
#
# Track frame offsets:
#	150
#	7540
#	12259
#	25762
#	33990
#	49347
#	58867
#	63367
#	69040
#	76037
#	92675
#	103717
#	109070
#	121015
#	131855
#	137320
#	143287
#	148905
#	157492
#	170232
#
# Disc length: 2457 seconds
#
# Revision: 1
# Processed by: cddbd v1.5.2PL0 Copyright (c) Steve Scherf et al.
# Submitted via: CDex 1.70beta2
#
DISCID=05099714
DTITLE=Various Artist - Hurra for Deg! - Bursdagssanger og Sangleker
DYEAR=1999
DGENRE=Barnesanger
TTITLE0=Anita Skorgan - Først kom et lass med lisser
TTITLE1=Strays Barnekor - Hurra for deg
TTITLE2=Janne Formoe - Bursdagssang
TTITLE3=Dolmen and Lorentzen - Hurra for fødselsdagsbarnet
TTITLE4=Kirsti sparboe - Napoleon med sin hær
TTITLE5=Lillibeth Lunde Elgstøen - Haren ut'i gresset
TTITLE6=Helge Sverre Nesheim - Danse i en ring
TTITLE7=Strays Barnekor - Ritsj, ratsj fillebom bom bom
TTITLE8=Vidar Sandbeck - Trollgubben Lurvelegg
TTITLE9=Sesam Stasjon - Bursdags sang
TTITLE10=Terje Formoe - Mikkes bursdags sang
TTITLE11=Frank Nordli and Mette Bjørndal - Hurra jeg fyller år
TTITLE12=Barnekor - Klapp i hendene
TTITLE13=Arne Bendiksen - Så moro som det er
TTITLE14=Lillebjørn Nilsen - Bamse bamse
TTITLE15=Sølvi Wang - Fødselsdagsvise
TTITLE16=Lillibeth Lunde Elgstøen - Ride, ride ranke
TTITLE17=Sigmund Groven - Bro, bro brille
TTITLE18=Lillebjørn Nilsen - Hermegåsa
TTITLE19=Alf Prøysen - Bursda'visa
EXTD=YEAR: 1999
EXTT0=
EXTT1=
EXTT2=
EXTT3=
EXTT4=
EXTT5=
EXTT6=
EXTT7=
EXTT8=
EXTT9=
EXTT10=
EXTT11=
EXTT12=
EXTT13=
EXTT14=
EXTT15=
EXTT16=
EXTT17=
EXTT18=
EXTT19=
PLAYORDER=
